<?xml version="1.0" encoding="UTF-8"?>
<svg id="Ebene_1" data-name="Ebene 1" xmlns="http://www.w3.org/2000/svg" viewBox="0 0 98.94 50.64">
  <defs>
    <style>
      .cls-1 {
        fill: #fff;
        stroke-width: 0px;
      }
    </style>
  </defs>
  <path class="cls-1" d="M17.08,3.53l2.92.89s.46-2.28-.73-2.65c-1.28-.39-2.19,1.75-2.19,1.75M36.47,11.24c.17-.56-7.85-3.51-17.92-6.58C8.47,1.58.17-.47,0,.09c-.17.56,7.85,3.51,17.92,6.59,10.07,3.08,18.37,5.12,18.54,4.56M76.85,28.44l-22.86-6.99c-.93-2.05-2.7-3.71-5.03-4.42-2.32-.71-4.72-.33-6.64.85l-22.94-7.02.75-2.46-5.45-1.67-.75,2.46-.7-.22-1.32,4.31.7.21-.75,2.46,5.45,1.67.75-2.46,15.71,4.8c-.15.57-.27,1.36-.15,2.15-1.68.79-5.64,3.06-7.02,7.57-1.77,5.8-2.9,9.49-2.9,9.49,0,0-.37,1.52.95,1.92,1.32.4,1.77-1.09,1.77-1.09l2.47-8.08s1.15-4.35,6.48-7.34c.27.15.58.28.93.38.74.23,1.48.45,2.19.67.33,3.15,2.49,5.95,5.71,6.93s6.58-.13,8.61-2.56c.69.21,1.4.43,2.11.64.35.11.68.17.99.2,2.74,5.47,1.27,9.71,1.27,9.71l-2.47,8.08s-.46,1.49.86,1.9,1.86-1.06,1.86-1.06c0,0,1.13-3.69,2.9-9.49,1.38-4.52-.63-8.61-1.59-10.2.54-.59.88-1.31,1.07-1.87l15.71,4.8-.75,2.46,5.45,1.67.75-2.46.7.21,1.32-4.31-.7-.22.75-2.46-5.45-1.67-.75,2.46ZM79.83,22.72l2.92.89s.46-2.28-.74-2.65c-1.28-.39-2.19,1.75-2.19,1.75M98.94,30.34c.17-.56-7.85-3.51-17.92-6.58-10.07-3.08-18.37-5.12-18.54-4.56-.17.56,7.85,3.51,17.92,6.58,10.07,3.08,18.37,5.12,18.54,4.56"/>
</svg>