<?xml version="1.0" encoding="UTF-8"?>
<svg id="Ebene_1" data-name="Ebene 1" xmlns="http://www.w3.org/2000/svg" viewBox="0 0 323.99 131.58">
  <defs>
    <style>
      .cls-1 {
        fill: #f39200;
      }

      .cls-1, .cls-2 {
        stroke-width: 0px;
      }

      .cls-2 {
        fill: #fff;
      }
    </style>
  </defs>
  <g>
    <path class="cls-1" d="M45.64,3.53l2.92.89s.46-2.28-.73-2.65c-1.28-.39-2.19,1.75-2.19,1.75M65.04,11.24c.17-.56-7.85-3.51-17.92-6.58C37.04,1.58,28.74-.47,28.57.09c-.17.56,7.85,3.51,17.92,6.59,10.07,3.08,18.37,5.12,18.54,4.56M105.42,28.44l-22.86-6.99c-.93-2.05-2.7-3.71-5.03-4.42-2.32-.71-4.72-.33-6.64.85l-22.94-7.02.75-2.46-5.45-1.67-.75,2.46-.7-.22-1.32,4.31.7.21-.75,2.46,5.45,1.67.75-2.46,15.71,4.8c-.15.57-.27,1.36-.15,2.15-1.68.79-5.64,3.06-7.02,7.57-1.77,5.8-2.9,9.49-2.9,9.49,0,0-.37,1.52.95,1.92,1.32.4,1.77-1.09,1.77-1.09l2.47-8.08s1.15-4.35,6.48-7.34c.27.15.58.28.93.38.74.23,1.48.45,2.19.67.33,3.15,2.49,5.95,5.71,6.93s6.58-.13,8.61-2.56c.69.21,1.4.43,2.11.64.35.11.68.17.99.2,2.74,5.47,1.27,9.71,1.27,9.71l-2.47,8.08s-.46,1.49.86,1.9,1.86-1.06,1.86-1.06c0,0,1.13-3.69,2.9-9.49,1.38-4.52-.63-8.61-1.59-10.2.54-.59.88-1.31,1.07-1.87l15.71,4.8-.75,2.46,5.45,1.67.75-2.46.7.21,1.32-4.31-.7-.22.75-2.46-5.45-1.67-.75,2.46v.05ZM108.39,22.72l2.92.89s.46-2.28-.74-2.65c-1.28-.39-2.19,1.75-2.19,1.75M127.51,30.34c.17-.56-7.85-3.51-17.92-6.58-10.07-3.08-18.37-5.12-18.54-4.56-.17.56,7.85,3.51,17.92,6.58,10.07,3.08,18.37,5.12,18.54,4.56"/>
    <path class="cls-1" d="M111.2,91.83h-8.98v-7.25h10.26v-1.37h-11.88v19.19h11.94v-1.37h-10.32v-7.83h8.98v-1.37h0ZM92.32,96.42c-.2,1.63-.73,2.85-1.6,3.66-.86.81-2.14,1.22-3.84,1.22s-3.07-.66-4.08-1.98-1.51-3.09-1.51-5.3v-2.35c0-2.3.52-4.09,1.55-5.4,1.03-1.3,2.42-1.95,4.16-1.95,3.14,0,4.91,1.63,5.31,4.89h1.63c-.19-1.96-.88-3.49-2.08-4.6-1.19-1.11-2.82-1.66-4.87-1.66-1.46,0-2.75.36-3.87,1.07-1.12.72-1.98,1.73-2.58,3.05s-.9,2.83-.9,4.54v2.49c0,1.68.31,3.17.91,4.48.6,1.3,1.44,2.31,2.54,3.03,1.09.71,2.35,1.07,3.78,1.07,2.04,0,3.67-.54,4.9-1.61s1.95-2.62,2.17-4.64h-1.63.01ZM66.95,85.18l3.85,10.45h-7.7l3.85-10.45ZM73.3,102.4h1.69l-7.26-19.19h-1.54l-7.26,19.19h1.7l1.98-5.39h8.71l1.99,5.39h0ZM42.7,84.58h4.57c1.56,0,2.76.37,3.63,1.12.86.75,1.29,1.8,1.29,3.16,0,1.23-.41,2.24-1.24,3.01-.83.78-1.92,1.16-3.28,1.16h-4.97v-8.45h0ZM52.92,102.4h1.73v-.17l-4.8-8.17c1.21-.36,2.18-1.01,2.9-1.95.72-.94,1.08-2.02,1.08-3.25,0-1.78-.58-3.17-1.73-4.16-1.15-.99-2.75-1.49-4.8-1.49h-6.24v19.19h1.63v-8h5.58l4.64,8h0Z"/>
    <path class="cls-2" d="M152.15,56.65h-13.5v-10.03h15.46v-3.36h-19.57v31.14h19.78v-3.36h-15.68v-11.03h13.5v-3.36h0ZM122.87,43.26h-4.08v24.1l-15.72-24.1h-4.13v31.14h4.13v-24l15.68,24h4.13v-31.14h0ZM84.32,60.14c-.04,3.61-.79,6.38-2.24,8.31s-3.51,2.9-6.16,2.9-4.71-1.02-6.21-3.07-2.26-4.86-2.26-8.44v-2.29c.04-3.51.81-6.25,2.3-8.22,1.49-1.98,3.53-2.96,6.13-2.96s4.74.99,6.22,2.96c1.48,1.97,2.22,4.81,2.22,8.5v2.31ZM88.4,57.87c0-3.04-.51-5.7-1.54-7.99s-2.49-4.03-4.4-5.24c-1.9-1.2-4.1-1.81-6.6-1.81s-4.63.61-6.53,1.83-3.38,2.98-4.42,5.27-1.56,4.94-1.56,7.93v2.25c.03,2.94.57,5.52,1.61,7.75,1.05,2.23,2.52,3.95,4.42,5.15,1.9,1.2,4.07,1.81,6.52,1.81s4.71-.6,6.59-1.8c1.88-1.2,3.34-2.93,4.36-5.21,1.03-2.27,1.54-4.94,1.54-7.99v-1.97.02ZM37.21,46.62h6.29c2.17,0,3.83.53,4.97,1.56,1.15,1.03,1.72,2.51,1.72,4.43,0,1.77-.6,3.19-1.81,4.24s-2.83,1.59-4.87,1.59h-6.31v-11.83h0ZM51.28,74.4h4.41v-.26l-7.31-13.22c1.87-.71,3.32-1.79,4.37-3.23s1.57-3.13,1.57-5.07c0-3.05-.94-5.38-2.83-6.97-1.89-1.6-4.59-2.4-8.09-2.4h-10.31v31.14h4.13v-12.6h7.31l6.76,12.6h-.01ZM8.9,46.62c3.05.03,5.41,1.02,7.07,2.99,1.66,1.96,2.49,4.71,2.49,8.25v1.82c0,3.64-.88,6.44-2.64,8.41-1.76,1.97-4.22,2.95-7.39,2.95h-4.32v-24.42s4.79,0,4.79,0ZM8.62,74.4c2.79-.03,5.24-.63,7.35-1.82,2.1-1.18,3.72-2.88,4.86-5.09,1.13-2.21,1.7-4.78,1.7-7.72v-1.99c-.01-2.87-.59-5.4-1.72-7.61s-2.74-3.91-4.82-5.11-4.48-1.8-7.19-1.8H0v31.14h8.62Z"/>
  </g>
  <g>
    <path class="cls-2" d="M127.02,94.32h-5.58v8h-1.63v-19.2h6.24c2.05,0,3.65.5,4.8,1.49s1.73,2.38,1.73,4.16c0,1.23-.36,2.31-1.08,3.25s-1.69,1.59-2.9,1.95l4.8,8.17v.17h-1.73l-4.64-8h-.01ZM121.45,92.95h4.97c1.36,0,2.46-.39,3.28-1.16.83-.78,1.24-1.78,1.24-3.01,0-1.36-.43-2.41-1.29-3.16s-2.07-1.12-3.63-1.12h-4.57v8.45h0Z"/>
    <path class="cls-2" d="M153.88,93.76c0,1.77-.31,3.32-.92,4.65-.61,1.34-1.48,2.36-2.62,3.08s-2.44,1.08-3.93,1.08c-2.24,0-4.05-.8-5.43-2.41-1.38-1.6-2.07-3.77-2.07-6.49v-1.98c0-1.75.31-3.3.93-4.65s1.5-2.39,2.63-3.11c1.13-.73,2.44-1.09,3.92-1.09s2.78.36,3.91,1.07,2,1.72,2.62,3.02.94,2.81.96,4.52v2.31ZM152.26,91.68c0-2.31-.52-4.12-1.57-5.43s-2.48-1.96-4.3-1.96-3.21.66-4.26,1.97c-1.06,1.31-1.59,3.15-1.59,5.5v2c0,2.28.53,4.08,1.58,5.41,1.05,1.33,2.49,2,4.3,2s3.27-.66,4.3-1.97,1.54-3.14,1.54-5.49v-2.03Z"/>
    <path class="cls-2" d="M162.81,83.12l7.08,16.94,7.11-16.94h2.16v19.2h-1.62v-8.36l.13-8.57-7.15,16.93h-1.25l-7.12-16.86.13,8.45v8.41h-1.62v-19.2h2.15,0Z"/>
    <path class="cls-2" d="M197.32,96.93h-8.71l-1.98,5.39h-1.7l7.26-19.2h1.54l7.26,19.2h-1.69l-1.99-5.39h.01ZM189.11,95.56h7.7l-3.85-10.45-3.85,10.45h0Z"/>
    <path class="cls-2" d="M220.81,102.32h-1.62l-11.03-16.43v16.43h-1.63v-19.2h1.63l11.05,16.44v-16.44h1.61v19.2h-.01Z"/>
    <path class="cls-2" d="M239.26,97.6c0-1.06-.37-1.91-1.12-2.52-.75-.62-2.11-1.21-4.1-1.77s-3.44-1.17-4.35-1.83c-1.3-.93-1.95-2.15-1.95-3.67s.6-2.66,1.81-3.58c1.21-.92,2.75-1.38,4.63-1.38,1.27,0,2.42.25,3.42.74,1.01.49,1.79,1.18,2.34,2.06s.83,1.86.83,2.94h-1.63c0-1.31-.45-2.37-1.34-3.17s-2.1-1.2-3.61-1.2-2.64.33-3.51.98c-.87.66-1.3,1.51-1.3,2.57,0,.98.39,1.77,1.17,2.39s2.04,1.16,3.76,1.63c1.72.47,3.03.96,3.92,1.46.89.51,1.56,1.11,2,1.81.45.7.67,1.53.67,2.49,0,1.51-.6,2.72-1.81,3.64-1.21.91-2.8,1.37-4.78,1.37-1.35,0-2.6-.24-3.72-.72-1.13-.48-1.99-1.16-2.57-2.03-.58-.87-.88-1.87-.88-2.99h1.62c0,1.35.51,2.42,1.52,3.2,1.01.78,2.36,1.17,4.03,1.17,1.49,0,2.69-.33,3.6-.99.91-.66,1.36-1.53,1.36-2.62v.02Z"/>
    <path class="cls-2" d="M261.31,102.32h-1.63v-9.2h-10.97v9.2h-1.62v-19.2h1.62v8.62h10.97v-8.62h1.63v19.2Z"/>
    <path class="cls-2" d="M283.07,93.76c0,1.77-.31,3.32-.92,4.65-.61,1.34-1.48,2.36-2.62,3.08s-2.44,1.08-3.93,1.08c-2.24,0-4.05-.8-5.43-2.41-1.38-1.6-2.07-3.77-2.07-6.49v-1.98c0-1.75.31-3.3.93-4.65s1.5-2.39,2.63-3.11c1.13-.73,2.44-1.09,3.92-1.09s2.78.36,3.91,1.07,2,1.72,2.62,3.02.94,2.81.96,4.52v2.31ZM281.45,91.68c0-2.31-.52-4.12-1.57-5.43s-2.48-1.96-4.3-1.96-3.21.66-4.26,1.97c-1.06,1.31-1.59,3.15-1.59,5.5v2c0,2.28.53,4.08,1.58,5.41,1.05,1.33,2.49,2,4.3,2s3.27-.66,4.3-1.97,1.54-3.14,1.54-5.49v-2.03h0Z"/>
    <path class="cls-2" d="M297.03,94.32h-5.58v8h-1.63v-19.2h6.24c2.05,0,3.65.5,4.8,1.49s1.73,2.38,1.73,4.16c0,1.23-.36,2.31-1.08,3.25s-1.69,1.59-2.9,1.95l4.8,8.17v.17h-1.73l-4.64-8h0ZM291.46,92.95h4.97c1.36,0,2.46-.39,3.28-1.16.83-.78,1.24-1.78,1.24-3.01,0-1.36-.43-2.41-1.29-3.16-.86-.75-2.07-1.12-3.62-1.12h-4.57v8.45h0Z"/>
    <path class="cls-2" d="M323.99,102.32h-1.62l-11.04-16.43v16.43h-1.63v-19.2h1.63l11.05,16.44v-16.44h1.61v19.2h0Z"/>
    <path class="cls-2" d="M131.26,131.32h-12.02v-1.21l6.58-7.46c1.09-1.26,1.85-2.29,2.27-3.11.42-.82.63-1.61.63-2.39,0-1.21-.36-2.17-1.07-2.88s-1.69-1.06-2.94-1.06-2.34.41-3.13,1.24c-.8.83-1.19,1.9-1.19,3.22h-1.57c0-1.08.24-2.07.73-2.95.49-.89,1.18-1.58,2.08-2.09.9-.5,1.93-.76,3.08-.76,1.76,0,3.13.46,4.12,1.38.99.92,1.48,2.18,1.48,3.77,0,.9-.28,1.88-.84,2.94-.56,1.06-1.54,2.39-2.95,3.98l-5.35,6.05h10.09v1.33h0Z"/>
    <path class="cls-2" d="M148.47,123.32c0,2.71-.5,4.76-1.49,6.16s-2.46,2.1-4.39,2.1-3.35-.69-4.36-2.06c-1.01-1.38-1.53-3.38-1.56-6v-3.44c0-2.7.5-4.74,1.5-6.13s2.46-2.08,4.39-2.08,3.35.67,4.35,2.01c1,1.34,1.52,3.32,1.56,5.93v3.52h0ZM146.89,119.88c0-2.2-.36-3.86-1.07-4.98-.72-1.12-1.8-1.69-3.25-1.69s-2.5.55-3.22,1.65-1.09,2.72-1.11,4.87v3.77c0,2.19.37,3.86,1.11,5.02.74,1.16,1.82,1.74,3.24,1.74s2.47-.57,3.2-1.7c.73-1.13,1.09-2.79,1.1-4.98v-3.69h0Z"/>
    <path class="cls-2" d="M166.58,131.32h-12.02v-1.21l6.58-7.46c1.09-1.26,1.85-2.29,2.27-3.11s.63-1.61.63-2.39c0-1.21-.36-2.17-1.07-2.88s-1.69-1.06-2.94-1.06-2.34.41-3.13,1.24c-.8.83-1.19,1.9-1.19,3.22h-1.57c0-1.08.24-2.07.73-2.95.49-.89,1.18-1.58,2.08-2.09.9-.5,1.93-.76,3.08-.76,1.76,0,3.13.46,4.12,1.38.99.92,1.48,2.18,1.48,3.77,0,.9-.28,1.88-.84,2.94-.56,1.06-1.54,2.39-2.95,3.98l-5.35,6.05h10.08v1.33h.01Z"/>
    <path class="cls-2" d="M181.91,125.14h2.99v1.33h-2.99v4.85h-1.58v-4.85h-9.03v-.9l8.89-13.45h1.73v13.01h0ZM173.24,125.14h7.09v-10.97l-.7,1.21-6.39,9.76Z"/>
  </g>
</svg>