<?xml version="1.0" encoding="utf-8"?>
<!-- Generator: Adobe Illustrator 28.1.0, SVG Export Plug-In . SVG Version: 6.00 Build 0)  -->
<svg version="1.1" id="Ebene_1" xmlns="http://www.w3.org/2000/svg" xmlns:xlink="http://www.w3.org/1999/xlink" x="0px" y="0px"
	 viewBox="0 0 989.5 226.8" style="enable-background:new 0 0 989.5 226.8;" xml:space="preserve">
<style type="text/css">
	.st0{fill:#FFFFFF;}
</style>
<g>
	<path class="st0" d="M175.6,181.7c-0.8,5.5-1.7,12.3-2.8,19c-0.1,0.6-1.6,1.4-2.4,1.4c-20.1,0-40.3,0.7-60.3-0.3
		c-16.1-0.8-31.8-4.9-46.2-12.7c-14.1-7.6-25.9-17.8-34.5-31.5c-15.5-24.9-17.9-51-6.4-78c8.5-19.9,23.2-34,42.3-44
		c9.9-5.2,20.3-8.5,31.1-10.6c6.6-1.2,13.4-1.8,20.1-1.8C400.5,23,684.7,23,968.9,23c1.6,0,3.2,0.1,5,0.2
		c-0.9,6.9-1.7,13.4-2.5,19.9c-0.1,0.5-0.2,1.1-0.3,1.6c-0.9,7.4-0.9,7.4-8.6,7.4c-134.7,0-269.5,0-404.2,0
		c-121.9,0-243.8,0-365.7,0.2c-21.2,0-38.9,9.1-53,24.6c-5.8,6.4-9.6,14.3-12.2,22.9c-3.1,10.1-3.2,20.3-1.2,30.3
		c3.3,16.5,11.5,30.5,25.8,39.9C159.2,174.6,167.2,177.7,175.6,181.7z"/>
	<path class="st0" d="M226.5,202.2c6.2-43.7,12.2-86.7,18.3-130c3.2,0,5.7,0,8.3,0c16.6,0,33.2-0.2,49.8,0.1
		c9.3,0.2,18.4,1.7,26.2,7.6c5.2,3.9,8.7,8.8,9.6,15.1c2.2,14.3-1.5,26.6-12.9,36c-1,0.8-2.3,1.4-3.4,2.1c-1,0.6-1.9,1.3-3,2.1
		c14.9,7.8,17.7,21.5,14,35.8c-4.7,18-17.3,27.4-35.4,29.6c-6.6,0.8-13.4,1.4-20.1,1.5C261.1,202.3,244.3,202.2,226.5,202.2z
		 M263.5,173c8.8,0,17.8,0.2,26.8-0.1c2.3-0.1,4.8-1.6,6.8-3c3.4-2.3,6.1-9.5,5-12.4c-1.9-5.3-5.8-8-11.3-8.2c-7-0.2-14-0.2-21,0
		c-1.1,0-3,1.5-3.2,2.5C265.4,158.8,264.5,166,263.5,173z M273.6,100.9c-0.9,7.5-1.8,14.7-2.8,22.3c7.2,0,13.5,0.3,19.8-0.1
		c3.5-0.2,7-1.4,10.2-2.8c4.3-2,6.2-8.4,4.8-13.7c-0.8-2.9-4.9-5.5-9.4-5.6C288.9,100.9,281.6,100.9,273.6,100.9z"/>
	<path class="st0" d="M892.8,159.2c-2.1,14.4-4.2,28.5-6.3,42.7c-11.2,0-22.1,0-33.9,0c6-43.2,12-86.2,18.1-129.5
		c1.1-0.1,2.4-0.2,3.7-0.2c19,0,38.1-0.3,57.1,0.1c12.1,0.2,23.4,3.4,31.6,13.3c7.3,8.7,9.1,19.1,7.5,29.9
		c-1.8,12-6.3,23.1-15.9,31.1c-4.5,3.7-9.8,6.4-15.1,9.7c7.6,14.7,15.4,29.8,23.5,45.4c-1.6,0.2-2.7,0.4-3.8,0.4
		c-10.4,0-20.8,0-31.2,0.1c-2.3,0-3.5-0.5-4.5-2.8c-4.8-10-9.9-19.8-14.9-29.7c-1.2-2.4-2.4-4.8-3.2-7.3c-0.9-2.8-2.6-3.6-5.4-3.3
		C897.7,159.4,895.3,159.2,892.8,159.2z M896.5,131.4c8.3,0,16.3,0.2,24.4-0.1c7-0.2,11.9-3.9,14.3-10.3c3.7-9.5,0.9-19.4-12-19.5
		c-6.5,0-12.9,0.1-19.4-0.1c-2.5-0.1-3.4,1.1-3.7,3.2c-0.3,2.8-0.5,5.6-0.9,8.4C898.3,119.1,897.4,125,896.5,131.4z"/>
	<path class="st0" d="M622.8,72.2c-6.1,43.5-12.1,86.4-18.2,129.7c-11.3,0-22.5,0-34.6,0c2.4-16.9,4.7-33.6,7.1-50.8
		c-4.9,0-9.3,0-13.7,0c-9,0-18.1,0.1-27.1,0c-2.6,0-3.3,0.8-3.6,3.4c-1.3,11.1-3,22.1-4.5,33.1c-0.6,4-1.1,8-1.9,12
		c-0.2,1-1.5,2.5-2.3,2.5c-10.6,0.2-21.3,0.1-32.4,0.1c0.3-3.1,0.4-5.9,0.7-8.7c0.9-6.7,1.8-13.3,2.8-19.9
		c1.3-8.6,2.8-17.2,4.1-25.8c1.4-9.7,2.7-19.4,4-29.1c1.5-11.2,3.1-22.4,4.6-33.5c0.4-3.1,0.8-6.1,1.2-9.2c0.3-1.9,0.4-3.7,3.2-3.7
		c10,0.1,20,0.1,30,0.1c0.5,0,1,0.2,1.8,0.4c-2.2,16-4.3,31.9-6.5,48.1c13.8,0,27.7,0.1,41.5-0.1c1,0,2.5-1.8,2.7-2.9
		c1.5-9.3,2.8-18.6,4.1-27.9c0.6-4.6,1-9.3,1.7-14c0.2-1.3,1.4-3.4,2.1-3.4C600.6,72.1,611.5,72.2,622.8,72.2z"/>
	<path class="st0" d="M370,72.4c11.5,0,22.8,0,34.3,0c-1.3,9.4-2.7,18.6-4,27.7c-1.5,10.8-3,21.5-4.4,32.3c-0.9,7.3-2.5,14.7-2.3,22
		c0.4,13.6,8.8,20.3,22.4,18.6c12.6-1.5,19.8-12.2,21.6-23.2c2.9-17.7,5.4-35.5,8-53.3c1-6.8,1.8-13.6,2.7-20.4
		c0.2-1.3,0.6-2.6,1-3.8c11.3,0,22.3,0,34,0c-1.3,7.6-2.7,14.9-3.7,22.3c-0.8,5.7-1,11.5-1.8,17.3c-2.1,14.9-3.6,29.9-6.8,44.6
		c-4.1,18.6-14.4,32.9-32.4,41.1c-13,5.9-26.3,6.9-40.1,5.5c-11.4-1.1-21.3-5-29.3-13.2c-4.9-5-8.1-11.1-9.1-18
		c-0.9-6.7-1.6-13.5-1.4-20.3c0.1-5.8,1.7-11.6,2.5-17.4c2.4-16.8,4.7-33.6,7.1-50.3C368.6,80.2,369.4,76.5,370,72.4z"/>
	<path class="st0" d="M751.3,72.4c31.1,0,61.7,0,92.9,0c-1.3,9.7-2.6,19.2-3.9,29.2c-19.6,0-39.2,0-59.1,0
		c-0.9,6.5-1.7,12.6-2.6,19.2c1.3,0.1,2.7,0.2,4.2,0.2c14.8,0,29.7,0.1,44.5-0.1c3.5,0,5,0.8,4.5,4.5c-1.2,7.8-2.1,15.7-3.4,23.5
		c-0.1,0.8-2.4,1.8-3.6,1.9c-12.3,0.1-24.6,0.1-36.8,0.1c-4.4,0-8.8,0-13.6,0c-1.1,7.2-2.2,13.9-3.3,21.4c19.8,0,38.9,0,59,0
		c-1.3,10.3-2.5,19.9-3.8,29.7c-31.1,0-61.7,0-93,0C739.2,158.7,745.2,115.7,751.3,72.4z"/>
	<path class="st0" d="M684.1,72.2c-4.8,33.4-9.5,66.4-14.4,100c17.4,0,34.7,0,52.6,0c-1.3,10.4-2.6,20.1-3.8,29.8
		c-29.3,0-58,0-87.3,0c0.3-3.8,0.5-7.5,1-11.2c0.5-3.7,1.6-7.2,2.1-10.9c1.2-9.3,2.1-18.7,3.5-28c1.9-13.1,4.2-26.2,6.2-39.3
		c1.8-12.2,3.4-24.5,5-36.8c0.4-2.8,1.5-3.8,4.4-3.7C663.6,72.3,673.6,72.2,684.1,72.2z"/>
	<path class="st0" d="M410.2,115.6c1.5-10.9,3-20.9,4.4-31c0.5-3.3,0.7-6.7,1.3-10c0.2-0.9,1.3-2.3,2-2.3c6.3-0.2,12.6-0.1,19.1-0.1
		c-1.7,11.9-3.3,23.1-4.9,34.4c-0.1,0.8-0.4,1.6-0.4,2.4c-0.1,7.6-0.5,6.5-7.2,6.6C420,115.6,415.4,115.6,410.2,115.6z"/>
</g>
</svg>
