<?xml version="1.0" encoding="utf-8"?>
<!-- Generator: Adobe Illustrator 28.1.0, SVG Export Plug-In . SVG Version: 6.00 Build 0)  -->
<svg version="1.1" id="Ebene_1" xmlns="http://www.w3.org/2000/svg" xmlns:xlink="http://www.w3.org/1999/xlink" x="0px" y="0px"
	 viewBox="0 0 1027.3 226.8" style="enable-background:new 0 0 1027.3 226.8;" xml:space="preserve">
<style type="text/css">
	.st0{fill:#FFFFFF;}
</style>
<g>
	<path class="st0" d="M24.9,118.9c0.9-0.5,1.8-0.5,2.7-0.5c31.5,0,63,0,94.5,0c2.5,0,2.5,0,2.5,2.5c0,31.3,0,62.6,0,93.9
		c0,0.9,0,1.8,0,2.7c-32.7,0-65.4,0-98.1,0c-1.4,0-1.7-0.3-1.7-1.7C24.9,183.5,24.9,151.2,24.9,118.9z"/>
	<path class="st0" d="M233.9,9.3c0,0.8-0.1,1.6-0.1,2.5c0,31.4,0,62.8,0,94.1c0,1.8-0.4,2.3-2.3,2.3c-31.4-0.1-62.9-0.1-94.3,0
		c-1.9,0-2.3-0.5-2.3-2.3c0.1-31.4,0-62.9,0-94.3c0-0.8,0-1.5,0-2.3C167.9,9.3,200.9,9.3,233.9,9.3z"/>
	<path class="st0" d="M134.9,217.5c0-32.5,0-64.9-0.1-97.4c0-1.3,0.5-1.5,1.6-1.5c31.9,0,63.8,0,95.7,0c1.9,0,1.6,1,1.6,2.1
		c0,31.5,0,63,0,94.5c0,0.8,0,1.5,0,2.3C200.9,217.5,167.9,217.5,134.9,217.5z"/>
	<path class="st0" d="M124.2,9.3c0,0.6,0,1.1,0,1.7c0,31.6,0,63.3,0,94.9c0,1.8-0.5,2.3-2.3,2.3c-31.4-0.1-62.8-0.1-94.1,0
		c-1.8,0-2.3-0.4-2.3-2.3c0.1-32.2,0.1-64.4,0.1-96.6C58.5,9.3,91.3,9.3,124.2,9.3z"/>
	<path class="st0" d="M316.8,78.1c-0.4,0.9-0.3,1.8-0.3,2.6c0,30.9,0,61.8,0,92.6c0,2.6,0,2.6-2.6,2.6c-5.1,0-10.2-0.1-15.3,0.1
		c-2,0.1-2.1-0.9-2.1-2.4c0-35.3,0-70.5,0-105.8c0-5,0-10.1,0-15.1c0-1.3,0.4-1.8,1.7-1.7c9.4,0.1,18.7,0.1,28.1,0
		c1.5,0,1.8,0.8,2.2,1.8c11.4,29.3,22.7,58.7,34.1,88c0.3,0.9,0.4,2.4,1.4,2.4c0.9,0,1-1.5,1.3-2.3c12-29.2,23.9-58.4,35.8-87.6
		c0.7-1.8,1.5-2.5,3.6-2.5c8.3,0.1,16.7,0.1,25,0c1.6,0,2,0.5,2,2.1c0,40.3,0,80.6,0,120.9c0,1.5-0.3,2.1-2,2.1
		c-5.9-0.1-11.7-0.1-17.6,0c-2,0-2.3-0.6-2.2-2.4c0-31,0-62,0-93c0-0.8,0-1.5,0-2.5c-0.8,0.5-0.9,1.2-1.1,1.8
		c-12.4,31.3-24.8,62.5-37.1,93.8c-0.7,1.7-1.5,2.3-3.3,2.2c-3.4-0.1-6.8-0.1-10.1,0c-1.5,0.1-2.1-0.5-2.6-1.8
		c-12.5-31-25-61.9-37.5-92.8C317.9,80.2,317.6,79.1,316.8,78.1z"/>
	<path class="st0" d="M928.3,139.7c0,11.2,0,22.4,0,33.6c0,2.5,0,2.5-2.6,2.5c-5.4,0-10.8-0.1-16.2,0c-1.9,0-2.5-0.4-2.4-2.4
		c0.1-22.4,0-44.8,0-67.2c0-2.7,0-2.7-2.7-2.7c-3.6,0-7.1-0.1-10.7,0c-1.4,0-1.8-0.5-1.8-1.9c0.1-4.6,0.1-9.2,0-13.8
		c0-1.5,0.5-1.8,1.9-1.8c3.8,0.1,7.6,0,11.5,0c1.4,0,1.9-0.4,1.9-1.9c-0.1-3.9-0.1-7.8,0-11.7c0.3-17.6,13.6-30.8,31.2-31
		c3.9,0,7.8,0,11.6,0.7c1.5,0.3,2.1,1,2,2.6c-0.1,4.6,0,9.2,0,13.8c0,2.4,0,2.5-2.2,1.6c-3.1-1.2-6.3-1.8-9.5-1.3
		c-7,0.9-10.9,5.1-11.5,12.4c-0.4,4.3-0.2,8.7-0.3,13c0,1.3,0.6,1.6,1.7,1.6c9.4,0,18.9,0,28.3,0c1.3,0,1.6-0.4,1.6-1.7
		c-0.1-5.6,0-11.2-0.1-16.8c0-1.4,0.4-2,1.7-2.4c5.7-1.6,11.3-3.4,17-5.1c2.3-0.7,2.3-0.7,2.3,1.7c0,7.3,0.1,14.6,0,22
		c0,1.9,0.6,2.4,2.4,2.3c5.6-0.1,11.2,0,16.8-0.1c1.9,0,2.4,0.6,2.3,2.4c-0.1,4.1,0,8.3,0,12.4c0,2.5,0,2.5-2.4,2.5
		c-5.7,0-11.5,0-17.2,0c-1.5,0-1.8,0.5-1.8,1.9c0,13.4,0,26.9,0.1,40.3c0,2.4,0.3,4.8,1,7.2c1.5,4.9,4.6,7.3,9.7,7.7
		c3.2,0.2,6.2-0.5,9-2c1.4-0.7,1.5-0.3,1.5,1c0,4.5-0.1,9,0,13.6c0,1.6-0.5,2.3-2,2.7c-6.4,2-13,2.3-19.6,1.7
		c-2.9-0.3-5.6-1-8.2-2.2c-7.6-3.6-10.8-10.2-12.1-18c-0.5-3.1-0.5-6.2-0.5-9.3c0-13.9,0.1-27.9,0.2-41.8c0-1.8-0.5-2.2-2.2-2.2
		c-9.1,0.1-18.2,0.1-27.3,0c-1.7,0-2.1,0.5-2.1,2.2C928.4,117,928.3,128.3,928.3,139.7z"/>
	<path class="st0" d="M718.8,128.7c0,11.1-1.8,20.1-6.5,28.4c-5.3,9.2-13.1,15.5-23.3,18.6c-10.8,3.3-21.8,3.4-32.7,0.2
		c-14-4.1-23-13.5-26.9-27.4c-3.9-13.9-3.2-27.6,3.1-40.7c6.4-13.4,17.6-20.6,32-22.8c9-1.4,17.9-1.2,26.6,1.7
		c14.4,4.8,22.5,15.2,26.2,29.6C718.4,120.9,718.9,125.6,718.8,128.7z M649.2,131.5c0.1,2.5,0.1,4.9,0.4,7.4
		c1.5,12.3,8.8,20.1,21.1,21.5c11.9,1.3,21.7-3.3,25.3-16.6c2.3-8.4,2.2-16.9,0-25.3c-1.7-6.6-5.1-12.1-11.7-14.9
		c-12-5-27.3-1.8-33.1,14.1C649.5,122.2,649.1,126.8,649.2,131.5z"/>
	<path class="st0" d="M889.6,130.5c-0.1,8.8-1.6,17.2-5.7,25.1c-5.6,10.6-14.2,17.5-25.7,20.7c-9.7,2.6-19.5,2.7-29.3,0.3
		c-13.8-3.4-23.2-11.9-27.9-25.3c-4.9-14.1-4.5-28.2,1.4-41.9c6.1-14.3,17.6-22,32.7-24.4c8.1-1.3,16.1-1.1,24.1,1
		c15.8,4.2,24.8,14.9,28.7,30.4C889.2,120.9,889.6,125.7,889.6,130.5z M819.9,132.4c0.1,2,0.1,4.7,0.6,7.3
		c1.1,6.2,3.4,11.8,8.5,15.9c5.2,4.1,11.3,5.3,17.8,4.9c9.5-0.6,16-5.4,19.2-14.4c2.8-7.9,2.8-16.1,1.5-24.3
		c-1.8-11.1-8.1-19.4-21-20.2c-8.4-0.5-15.5,2-20.7,9.1C821.2,116.9,819.9,124.1,819.9,132.4z"/>
	<path class="st0" d="M728.7,162.7c0-2.8,0-5.6,0-8.4c0-0.5-0.3-1.3,0.3-1.6c0.6-0.3,1,0.3,1.5,0.6c5.5,3.5,11.4,5.9,17.8,7
		c4.1,0.7,8.1,0.7,12.1-0.2c6.3-1.4,8.8-7.5,5.4-13c-1.2-2-2.9-3.4-4.8-4.5c-4-2.3-8.2-4-12.4-5.8c-5-2.2-9.9-4.8-13.6-9
		c-9.2-10.3-7.7-27.3,3.1-36.3c6.5-5.5,14.2-7.7,22.5-8.2c7.4-0.5,14.5,1.2,21.6,3.2c1.2,0.3,1.6,0.9,1.6,2.2
		c-0.1,5.7-0.1,11.3,0,17c0,1.7-0.5,1.6-1.7,0.9c-6.1-3.6-12.5-6.2-19.8-6c-1.5,0-3,0.3-4.5,0.6c-3.9,0.8-6.5,3.1-7.1,7
		c-0.7,4.2,0.4,7.8,4.4,10.2c3.2,1.9,6.7,3.3,10.2,4.8c5.2,2.2,10.4,4.5,14.9,8.1c5.2,4.2,8.1,9.6,8.7,16.3
		c1.5,16.8-10.7,26.3-23.1,29c-11.9,2.6-23.5,1.1-34.9-2.8c-1.4-0.5-2.1-1.2-2-2.9C728.8,168.2,728.7,165.4,728.7,162.7z"/>
	<path class="st0" d="M557.3,108.9c-1.4-0.8-2.7-1.7-4-2.5c-7.4-4.2-15.2-5.8-23.5-3.8c-10.3,2.4-18,11-19.6,21.8
		c-0.9,6.4-1,12.7,1.1,18.9c3.4,10,10.6,15.3,20.9,16.9c8.9,1.4,16.5-1.8,23.7-6.4c0.6-0.4,1-0.9,1.8-1c0.4,0.6,0.2,1.3,0.2,1.9
		c0,4.9-0.1,9.8,0.1,14.7c0.1,2.1-0.7,3.1-2.6,4c-5.7,2.6-11.8,3.7-17.9,4.2c-7.9,0.6-15.8,0.2-23.3-2.9
		c-14.5-6.1-23.3-17-25.8-32.5c-2.2-13.3-0.2-26,7.1-37.6c7.2-11.6,17.8-17.8,31.2-19.7c9.8-1.4,19.3-0.7,28.5,3
		c1.9,0.8,2.6,1.7,2.5,3.8c-0.2,5,0,10.1-0.1,15.1C557.6,107.4,557.8,108.1,557.3,108.9z"/>
	<path class="st0" d="M595.1,100c0.3-0.6,0.7-1.3,1-1.9c5.8-11.7,16.7-14.8,28.1-12.7c1.1,0.2,1.8,0.5,1.8,1.9
		c-0.1,6.2,0,12.5,0,18.7c0,0.2-0.1,0.5-0.1,0.9c-2.9-1.8-5.9-2.6-9.1-2.9c-9.6-1.1-16.7,3.5-19.9,12.6c-1.7,4.8-2.2,9.8-2.2,14.8
		c0,14,0,28,0,42c0,1.8-0.4,2.4-2.3,2.3c-5.5-0.1-11.1-0.1-16.6,0c-1.7,0-2.2-0.4-2.2-2.2c0.1-25.7,0-51.3,0-77c0-2.9,0.1-5.9,0-8.8
		c0-1.3,0.3-1.8,1.7-1.8c5.9,0.1,11.8,0,17.8,0c1.2,0,1.7,0.4,1.6,1.6c-0.1,3.4,0,6.9,0,10.3c0,0.6,0.1,1.2,0.1,1.8
		C594.9,100,595,100,595.1,100z"/>
	<path class="st0" d="M473.1,130.9c0,14.3,0,28.5,0,42.8c0,1.6-0.3,2.2-2.1,2.2c-5.6-0.1-11.2-0.1-16.8,0c-1.7,0-2.2-0.4-2.2-2.2
		c0.1-23.7,0-47.4,0-71c0-4.8,0.1-9.6,0-14.3c0-1.6,0.3-2.2,2.1-2.2c5.7,0.1,11.3,0.1,17,0c1.6,0,2.1,0.4,2,2
		C473.1,102.4,473.1,116.7,473.1,130.9z"/>
	<path class="st0" d="M475.4,60.6c0,6.8-5.6,11.9-12.9,12c-7.1,0-12.8-5.5-12.7-12.4c0-6.6,5.9-11.9,12.9-11.9
		C470,48.4,475.4,53.6,475.4,60.6z"/>
</g>
</svg>
