<?xml version="1.0" encoding="utf-8"?>
<!-- Generator: Adobe Illustrator 28.1.0, SVG Export Plug-In . SVG Version: 6.00 Build 0)  -->
<svg version="1.1" id="Ebene_1" xmlns="http://www.w3.org/2000/svg" xmlns:xlink="http://www.w3.org/1999/xlink" x="0px" y="0px"
	 viewBox="0 0 1326.4 169.2" style="enable-background:new 0 0 1326.4 169.2;" xml:space="preserve">
<style type="text/css">
	.st0{fill:#FFFFFF;}
</style>
<g>
	<path class="st0" d="M813.5,63.7c0-15.4,0-30.9,0-46.3c0-3.7,0-3.7,3.7-3.7c11.5,0,23,0,34.6,0c3.8,0,3.9,0,3.9,3.8
		c0,27.6,0,55.1,0,82.7c0,3,0.1,6,1.1,8.8c2.7,7.9,9.4,12.9,16.8,12.5c7.8-0.5,14.3-6.3,16.1-14.5c0.5-2.1,0.5-4.2,0.5-6.4
		c0-27.7,0-55.4,0-83.2c0-3.8,0-3.8,3.8-3.8c11.9,0,23.7,0.1,35.6,0c2.5,0,3.2,0.8,3.2,3.2c-0.1,28.5-0.5,57-0.1,85.5
		c0.4,28.5-16.9,43.9-36.2,50.3c-19.7,6.5-39.1,5.5-57.5-4.6c-16.1-8.9-25-22.7-25.3-41.3C813.4,92.4,813.6,78.1,813.5,63.7
		C813.5,63.7,813.5,63.7,813.5,63.7z"/>
	<path class="st0" d="M968.3,107.4c6.3,0,12.6,0,18.9,0c1.4,0,2.6,0,2.8,2c0.8,8,6.9,13.9,15.2,14.6c5.5,0.5,10.8-0.1,15-4.2
		c4.6-4.6,3.5-10.6-2.3-13.5c-6.9-3.5-14.5-5.5-21.8-7.8c-9.4-2.9-18.9-5.6-27.4-10.9c-11.4-7.1-18-17-18.1-30.8
		c-0.1-16.8,7.7-29,21.9-37.3c12.4-7.3,26-9.2,40.3-7.6c8.7,0.9,17.1,2.7,24.9,6.9c13.6,7.2,20.9,18.6,22,33.9
		c0.4,5.3,0.3,5.4-5.1,5.4c-10.2,0-20.5-0.1-30.7,0.1c-2.6,0-3.8-0.9-4.5-3.3c-1.2-4.2-3.4-7.6-7.5-9.5c-4.1-1.9-12.9-1.7-16.4,2.6
		c-3,3.7-2.4,9.1,1.8,11.4c4.8,2.7,10.1,3.4,15.4,4.4c13.3,2.4,26.3,5.8,37.5,13.9c12.8,9.3,18.1,22,16.5,37.7
		c-1.1,10.4-5.6,19.1-13.2,26c-8.6,7.8-19.1,12-30.3,14.5c-5.4,1.2-11,2.1-16.5,2c-16.4-0.4-32-3.8-44.9-14.8
		c-10.1-8.7-14.6-20.2-15-33.5c-0.1-2,1.2-2.1,2.7-2.1C955.6,107.4,962,107.4,968.3,107.4z"/>
	<path class="st0" d="M266.8,83.8c0-22.2,0-44.4,0-66.5c0-3.6,0-3.6,3.6-3.6c20.6,0,41.1,0.1,61.7,0c28.5-0.2,46.5,22.4,48.4,44.9
		c1.8,21-8.5,40.2-26.2,49c-5.7,2.8-11.7,4.2-18,4.3c-8.1,0-16.2,0.1-24.3,0c-2.6,0-3.4,0.7-3.4,3.3c0.1,11.8,0.1,23.5,0,35.3
		c0,3.8,0,3.8-3.6,3.8c-11.6,0-23.2-0.1-34.8,0c-2.6,0-3.4-0.8-3.3-3.4C266.8,128.5,266.8,106.2,266.8,83.8z M308.7,62.3
		c0,3.7,0.1,7.5,0,11.2c0,1.8,0.6,2.6,2.5,2.6c5.2-0.1,10.4,0.1,15.6-0.1c6.6-0.2,11-4.5,11.8-11.4c0.8-6.9-3.1-13.7-8.8-15.4
		c-0.7-0.2-1.5-0.3-2.3-0.4c-5.5,0-11.1,0-16.6-0.1c-1.6,0-2.3,0.6-2.2,2.3C308.8,54.8,308.7,58.6,308.7,62.3z"/>
	<path class="st0" d="M670.9,154.1c-6.1,0-12.1-0.1-18.2,0c-1.9,0-3-0.6-3.5-2.5c-1.1-4.4-2.5-8.7-3.7-13c-0.5-1.8-1.3-2.5-3.2-2.5
		c-12.8,0.1-25.6,0.1-38.4,0c-1.7,0-2.6,0.6-3.1,2.3c-1.2,4.4-2.6,8.8-3.9,13.3c-0.4,1.6-1.1,2.4-3,2.4c-12.4-0.1-24.7,0-37.1,0
		c-2.6,0-2.7-0.3-1.7-3.2c11.3-33.7,22.6-67.4,33.9-101.1c3.7-11.1,7.5-22.1,11.1-33.2c0.7-2.1,1.7-2.9,4-2.8
		c12.4,0.1,24.7,0.1,37.1,0c2.1,0,3.2,0.5,3.9,2.6c15.4,44.8,31,89.6,46.4,134.4c1.1,3.2,0.9,3.4-2.6,3.4
		C683.1,154.1,677,154,670.9,154.1C670.9,154.1,670.9,154.1,670.9,154.1z M623.3,54.5c-0.2,0-0.4-0.1-0.6-0.1
		c-0.7,2.7-1.4,5.4-2.1,8.1c-3.4,12.8-6.8,25.7-10.2,38.5c-0.5,1.7-0.5,2.8,1.8,2.8c7.4,0.1,14.8,0.2,22.2,0.4
		c2.1,0.1,3-0.4,2.3-2.8c-2.1-6.9-3.9-13.8-5.9-20.6C628.2,72,625.7,63.2,623.3,54.5z"/>
	<path class="st0" d="M739.4,13.7c16.6,0,33.1,0,49.7,0c3.7,0,3.7,0,3.7,3.6c0,10.3-0.1,20.6,0,31c0,2.4-0.7,3.2-3.2,3.2
		c-8.2-0.1-16.4-0.1-24.6,0c-4.2,0-4.2,0-4.2,4.1c0,30.8,0,61.6,0,92.4c0,0.9,0,1.9,0,2.8c0,3.4-0.1,3.5-3.4,3.5
		c-11.9,0-23.7,0-35.6,0c-3.5,0-3.5,0-3.5-3.6c0-31.6,0-63.3,0-94.9c0-4.2,0-4.2-4.2-4.2c-8.5,0-17.1-0.1-25.6,0
		c-2.4,0-3.1-0.8-3.1-3.1c0.1-10.4,0-20.8,0-31.2c0-3.4,0.1-3.5,3.4-3.5C705.7,13.7,722.6,13.7,739.4,13.7z"/>
	<path class="st0" d="M461.3,83.7c0-22.2,0-44.3,0-66.5c0-3.4,0-3.5,3.4-3.5c12.1,0,24.2,0,36.3,0c3.3,0,3.3,0,3.4,3.5
		c0,32.6,0,65.2,0,97.7c0,4,0,4,4.1,4c11.2,0,22.4,0.1,33.5-0.1c2.6,0,3.4,0.8,3.3,3.4c-0.1,9.6-0.1,19.3,0,28.9
		c0,2.4-0.8,3.1-3.1,3.1c-25.9-0.1-51.9-0.1-77.8,0c-2.5,0-3.1-0.9-3.1-3.3C461.3,128.6,461.3,106.1,461.3,83.7z"/>
	<path class="st0" d="M124.7,13.7c35.2,0,70.3,0,105.5,0c4.2,0,4.2,0,4.2,4.3c0,9,0,17.9,0,26.9c0,3.8,0,3.9-3.8,3.9
		c-32.7,0-65.4,0-98,0c-28.2,0-56.5,0-84.7,0c-2.5,0-4.1-0.8-5.7-2.6c-8.3-9.9-16.8-19.8-25.2-29.7c-0.6-0.7-1.8-1.4-1.4-2.3
		c0.4-0.9,1.7-0.5,2.6-0.5C53.7,13.7,89.2,13.7,124.7,13.7z"/>
	<path class="st0" d="M1310.9,14.1c-0.2,1-0.9,1.6-1.4,2.2c-8.5,10-17.1,20-25.5,30c-1.4,1.6-2.8,2.4-5,2.4
		c-61.2-0.1-122.4,0-183.5,0c-3.4,0-3.5-0.1-3.5-3.4c0-9.4,0-18.8,0-28.1c0-3.2,0.2-3.4,3.3-3.4c71.1,0,142.2,0,213.2,0
		C1309.2,13.7,1310,13.5,1310.9,14.1z"/>
	<path class="st0" d="M437.8,84.1c0,22.2,0,44.3,0,66.5c0,3.6,0,3.6-3.5,3.6c-11.8,0-23.6,0-35.3,0c-3.3,0-3.4-0.1-3.4-3.5
		c0-44.5,0-89,0-133.6c0-3.4,0.1-3.5,3.4-3.5c11.8,0,23.6,0,35.3,0c3.5,0,3.5,0,3.5,3.6C437.9,39.6,437.9,61.9,437.8,84.1z"/>
	<path class="st0" d="M59.3,66.7c1.1-0.7,2-0.4,3-0.4c56.2,0,112.3,0,168.5,0c3.5,0,3.5,0,3.5,3.6c0,9.4-0.1,18.8,0,28.2
		c0,2.5-0.8,3.2-3.2,3.2c-46.7-0.1-93.4,0-140.1,0c-1.5,0-2.8-0.1-3.9-1.4c-9-10.7-18.1-21.3-27.2-32C59.8,67.5,59.6,67.2,59.3,66.7
		z"/>
	<path class="st0" d="M1266.9,66.4c-0.2,1.2-0.8,1.6-1.3,2.2c-8.7,10.2-17.4,20.4-26,30.6c-1.2,1.4-2.4,1.9-4.2,1.9
		c-46.8,0-93.5,0-140.3,0c-2.5,0-3.2-0.8-3.2-3.2c0.1-9.5,0.1-19.1,0-28.6c0-2.3,0.7-3.1,3.1-3.1c56.6,0.1,113.1,0,169.7,0.1
		C1265.4,66.3,1266,66.4,1266.9,66.4z"/>
	<path class="st0" d="M168.8,119.1c20.7,0,41.3,0,62,0c3.5,0,3.5,0,3.5,3.6c0,9.4-0.1,18.8,0,28.1c0,2.5-0.8,3.3-3.2,3.2
		c-31.9-0.1-63.8-0.1-95.7,0c-1.9,0-3.2-0.7-4.3-2.1c-8.6-10.2-17.2-20.3-25.8-30.4c-0.5-0.6-1.4-1.1-1.1-1.9c0.4-1,1.5-0.6,2.3-0.6
		C127.2,119.1,148,119.1,168.8,119.1z"/>
	<path class="st0" d="M1157.5,119.1c20.1,0,40.3,0,60.4,0c0.7,0,1.4,0,2,0c0.8,0.1,1.9-0.4,2.3,0.6c0.3,0.7-0.6,1.3-1.1,1.9
		c-5.8,6.8-11.6,13.6-17.4,20.5c-2.9,3.4-5.8,6.7-8.6,10.2c-1.1,1.3-2.2,1.9-3.9,1.9c-32.1,0-64.2,0-96.3,0c-2.2,0-3-0.7-3-3
		c0.1-9.6,0.1-19.3,0-28.9c0-2.6,1-3.1,3.3-3.1C1116,119.2,1136.7,119.1,1157.5,119.1z"/>
</g>
</svg>
